<?xml version="1.0" standalone="no"?>
<!DOCTYPE svg PUBLIC "-//W3C//DTD SVG 20010904//EN"
 "http://www.w3.org/TR/2001/REC-SVG-20010904/DTD/svg10.dtd">
<svg version="1.0" xmlns="http://www.w3.org/2000/svg"
 width="300.000000pt" height="300.000000pt" viewBox="0 0 300.000000 300.000000"
 preserveAspectRatio="xMidYMid meet">
<metadata>
Created by potrace 1.10, written by Peter Selinger 2001-2011
</metadata>
<g transform="translate(0.000000,300.000000) scale(0.050000,-0.050000)"
fill="#3871bb" stroke="none">
<path d="M2830 5987 c-2450 -162 -3683 -2999 -2128 -4897 1415 -1728 4196
-1306 5061 769 838 2011 -768 4272 -2933 4128z m630 -158 c1895 -302 2954
-2370 2101 -4099 -1048 -2124 -4110 -2112 -5141 19 -1006 2077 759 4445 3040
4080z"/>
<path d="M2550 5630 c-974 -180 -1598 -739 -1831 -1640 -103 -397 -73 -679
101 -934 146 -214 134 -382 -32 -437 -227 -75 -390 158 -406 581 -12 324 -38
194 -40 -200 -7 -1288 843 -2275 2010 -2334 285 -15 391 10 552 129 221 162
324 175 438 53 203 -217 -108 -465 -591 -470 -213 -3 -217 -4 -101 -22 999
-156 2104 378 2469 1194 273 609 290 1088 51 1402 -138 180 -132 343 15 415
233 113 414 -123 434 -567 l12 -250 17 160 c86 788 -199 1619 -714 2082 -548
493 -1438 697 -1827 418 -244 -175 -399 -181 -477 -17 -108 228 134 408 570
425 199 7 232 12 160 24 -143 24 -657 16 -810 -12z m188 -1061 c243 -205 -39
-839 -483 -1088 -126 -71 -123 -68 -96 -120 76 -141 394 23 466 241 83 252
270 403 378 305 73 -66 26 -220 -121 -394 -45 -54 -82 -118 -82 -143 0 -25 -6
-75 -13 -111 l-13 -66 78 47 c43 25 188 118 322 205 l245 159 -12 115 c-58
553 484 1119 802 839 222 -195 69 -588 -359 -918 -126 -97 -126 -98 -61 -175
48 -57 50 -57 175 -39 216 32 374 -43 343 -162 -20 -76 -111 -107 -314 -108
-503 -1 -809 -538 -610 -1070 211 -564 977 -468 977 124 0 210 -82 357 -214
382 -194 37 -296 -152 -176 -328 123 -181 -11 -321 -198 -205 -276 170 -185
654 146 770 645 228 1038 -666 516 -1173 -407 -395 -1090 -254 -1338 275 -217
465 -30 1087 400 1329 79 44 80 47 49 89 l-33 44 -183 -124 c-100 -68 -268
-174 -373 -236 l-191 -113 -13 -135 c-59 -602 -159 -877 -410 -1126 -483 -481
-1170 -151 -964 463 98 293 355 524 907 817 214 113 235 130 235 180 l0 56
-78 -39 c-214 -106 -419 -51 -536 143 -56 93 -78 111 -170 142 -252 85 -376
412 -251 660 83 164 255 181 226 22 -45 -248 -36 -339 39 -415 70 -70 84 -61
100 66 72 579 597 1060 888 815z"/>
<path d="M2383 4286 c-136 -141 -281 -466 -260 -578 13 -64 279 207 365 371
144 274 80 401 -105 207z"/>
<path d="M3870 4294 c-92 -97 -156 -240 -179 -404 l-14 -100 103 100 c158 153
263 322 256 409 -9 105 -61 103 -166 -5z"/>
<path d="M2250 2635 c-516 -306 -779 -795 -492 -914 246 -102 558 279 673 823
50 236 57 232 -181 91z"/>
</g>
</svg>
